<?xml version="1.0" encoding="utf-8"?>
<!-- Generator: Adobe Illustrator 16.0.0, SVG Export Plug-In . SVG Version: 6.00 Build 0)  -->
<!DOCTYPE svg PUBLIC "-//W3C//DTD SVG 1.1//EN" "http://www.w3.org/Graphics/SVG/1.1/DTD/svg11.dtd">
<svg version="1.1" id="Layer_1" xmlns="http://www.w3.org/2000/svg" xmlns:xlink="http://www.w3.org/1999/xlink" x="0px" y="0px"
	 width="50px" height="60px" viewBox="0 0 50 60" enable-background="new 0 0 50 60" xml:space="preserve">
<path fill="#E6E7E8" d="M25.842,59.561c4.353-3.691,24.402-21.42,24.156-34.45c-0.266-13.865-11.192-25.11-24.996-25.11
	S0.006,11.244,0.006,25.111h0c-0.419,13.883,19.644,30.85,24.109,34.45c0,0,0.609,0.441,0.874,0.439
	C25.248,60,25.842,59.561,25.842,59.561z"/>
<g>
	<path fill="#F6653C" d="M28.999,29.014l9.547,9.591c3.438-3.454,5.563-8.224,5.563-13.494H30.872
		C30.808,26.306,30,27.713,28.999,29.014z"/>
	<path fill="#F6653C" d="M21.228,29.014l-9.548,9.591c3.438,3.454,8.187,5.59,13.433,5.59V33.082
		C25.113,33.082,22.912,31.204,21.228,29.014z"/>
	<path fill="#FFFFFF" d="M19.355,25.111H6.117c0,5.27,2.126,10.04,5.563,13.494l9.548-9.591
		C20.227,27.713,19.419,26.306,19.355,25.111z"/>
	<path fill="#FFFFFF" d="M25.113,33.082v11.114c5.245,0,9.994-2.137,13.433-5.59l-9.547-9.591
		C27.314,31.204,25.113,33.082,25.113,33.082z"/>
	<path fill="#F6653C" d="M19.339,24.96c0-1.564,0.623-2.976,1.624-4.02l-9.282-9.323c-3.437,3.454-5.563,8.225-5.563,13.494h13.238
		C19.352,25.062,19.339,25.009,19.339,24.96z"/>
	<path fill="#F6653C" d="M29.265,20.941l9.281-9.323c-3.438-3.454-8.188-5.59-13.433-5.59v13.131
		C26.746,19.159,28.215,19.846,29.265,20.941z"/>
	<path fill="#FFFFFF" d="M29.265,20.941c1,1.044,1.623,2.456,1.623,4.02c0,0.049-0.014,0.101-0.016,0.151h13.237
		c0-5.269-2.126-10.04-5.563-13.494L29.265,20.941z"/>
	<path fill="#FFFFFF" d="M25.113,19.159V6.028c-5.246,0-9.995,2.136-13.433,5.59l9.282,9.323
		C22.012,19.846,23.48,19.159,25.113,19.159z"/>
</g>
</svg>
